<svg width="200" height="200" xmlns="http://www.w3.org/2000/svg">
 <!-- Created with Method Draw - http://github.com/duopixel/Method-Draw/ -->
 <g>
  <title>Layer 1</title>
  <g transform="rotate(58.17445373535156 73.40948486328126,-160.25173950195312) " id="svg_9">
   <g id="svg_5" fill="#000000" transform="matrix(0.43402775113160424,0,0,-0.43402775113160424,0,277.7777565850156) ">
    <path id="svg_1" d="m719.480216,825.781061l-36,-23l38,-22c22,-12 41,-22 44,-22c4,0 6,20 6,45c0,25 -3,45 -7,45c-5,0 -24,-11 -45,-23z"/>
    <path id="svg_2" d="m608.480216,759.781061c-42,-27 -42,-28 2,-51l41,-20l0,45c0,50 -3,51 -43,26z"/>
    <path id="svg_3" d="m671.480216,733.781061c0,-25 2,-45 4,-45c7,0 76,41 76,45c0,5 -66,45 -74,45c-3,0 -6,-20 -6,-45z"/>
    <path id="svg_4" d="m729.480216,692.781061c-21,-14 -38,-26 -38,-28c0,-7 72,-47 77,-42c2,2 3,24 1,49l-3,44l-37,-23z"/>
   </g>
  </g>
 </g>
</svg>